<?xml version="1.0" encoding="utf-8"?>
<!-- Generator: Adobe Illustrator 23.0.2, SVG Export Plug-In . SVG Version: 6.00 Build 0)  -->
<svg version="1.1" id="Layer_1" xmlns="http://www.w3.org/2000/svg" xmlns:xlink="http://www.w3.org/1999/xlink" x="0px" y="0px"
	 viewBox="0 0 200 51.3" style="enable-background:new 0 0 200 51.3;" xml:space="preserve">
<g id="Group-39" transform="translate(63.000000, 30.000000)">
	<path id="heroteam-copy-7_9_" d="M-19.2-13h5.1v7H-8v-7h5.1V6.6H-8v-7.5h-6.1v7.5h-5.1V-13z M0.9,6.6V-13h12v4.3H6v3.2h6.1v4.3H6
		v3.6h6.9v4.2H0.9z M33.5,6.6h-5.8l-3-5.2h-3.1v5.2h-5.1V-13h8.1c3.9,0,7.1,3.2,7.1,7.2c0,2.1-0.9,4-2.3,5.3L33.5,6.6z M21.6-8.7
		v5.6h3.1c1.5,0,2.8-1.2,2.8-2.8s-1.2-2.8-2.8-2.8H21.6z M34.4-3.2c0-5.4,4.3-9.8,9.6-9.8c5.3,0,9.6,4.4,9.6,9.8S49.3,6.6,44,6.6
		C38.6,6.6,34.4,2.2,34.4-3.2z M48.6-3.2c0-2.6-2.1-4.7-4.6-4.7c-2.5,0-4.6,2.1-4.6,4.7c0,2.6,2.1,4.7,4.6,4.7
		C46.5,1.5,48.6-0.6,48.6-3.2z M55.4-7.9v-5.1h15.2v5.1h-5.1V6.6h-5.1V-7.9H55.4z M74.1,6.6V-13h12v4.3h-6.9v3.2h6.1v4.3h-6.1v3.6
		h6.9v4.2H74.1z M93.5,6.6h-5.1l9-19.6h2.3l9.1,19.6h-5.1L102.5,4h-7.9L93.5,6.6z M98.6-4.6l-2,4.3h3.9L98.6-4.6z M113.6-13l7.9,7.3
		l7.8-7.3h2.3V6.6h-5.1V-3.5l-5,4.7l-5.1-4.7V6.6h-5.1V-13H113.6z M-53.7-5.6c-0.1,1.1-0.1,2.1,0.1,3c0.3,2,1.6,3.5,3.7,3.7
		c1.4,0.1,2.7-0.2,3.7-1.2c0.4-0.4,0.6-0.9,0.3-1.5C-46.1-2-46.6-1.9-47-2c-1.6-0.4-3.1-1-4.5-1.8C-52.2-4.3-53-4.9-53.7-5.6
		 M-32.6-5.6c-0.5,0.4-0.8,0.7-1.2,1.1c-1.8,1.5-3.9,2.2-6.1,2.8c-0.5,0.1-0.8,0.6-0.6,1.1c0.1,0.3,0.2,0.5,0.5,0.7
		c1.1,1,2.4,1.3,3.7,1.1c0.8-0.1,1.6-0.4,2.2-1C-32.5-1.4-32.5-3.5-32.6-5.6 M-53.4,11.3c-0.4-1.2-0.9-2.2-1.2-3.3
		c-0.6-1.7-1.2-3.4-1.7-5.2c-1-3.7-1.5-7.5-1.1-11.4c0.2-1.4,0.4-2.7,0.9-4.2c0.6,0.5,1.2,1,1.8,1.4c2.7,1.5,6.5,0.8,8.4-2
		c1.1-1.6,1.9-3.3,2.8-5c0.1-0.2,0.1-0.4,0.3-0.4c0.2,0,0.3,0.3,0.4,0.5c0.9,1.7,1.7,3.4,2.8,5c2.3,3.3,7.1,3.6,9.8,0.9
		c0.1-0.1,0.2-0.2,0.3-0.3c0.4,0.7,0.5,1.5,0.7,2.2c0.5,2.5,0.6,5,0.3,7.5c-0.2,1.7-0.5,3.3-0.9,5c-0.8,3-1.8,5.9-2.9,8.8
		c-0.1,0.2-0.2,0.3-0.3,0.5c-1-1.9-2-3.9-3.2-5.6c-0.6-0.8-1.2-1.6-2-2.2c-1.2-0.9-2.2-0.8-3.2,0.3c-0.6,0.6-1,1.3-1.4,2
		c-0.1,0.2-0.2,0.3-0.4,0.5c-0.5-0.7-0.9-1.4-1.4-2.1c-0.3-0.3-0.5-0.7-0.9-0.9c-0.9-0.7-1.7-0.6-2.7,0.1c-1.3,1-2.2,2.4-3.1,3.8
		C-51.9,8.5-52.6,9.9-53.4,11.3"/>
</g>
</svg>
